<svg xmlns="http://www.w3.org/2000/svg" xmlns:xlink="http://www.w3.org/1999/xlink" width="500" zoomAndPan="magnify" viewBox="0 0 375 149.999998" height="200" preserveAspectRatio="xMidYMid meet" version="1.0"><defs><g/></defs><g fill="#ffffff" fill-opacity="1"><g transform="translate(0.0117219, 102.91068)"><g><path d="M 17.0625 0 L 6.765625 0 L 6.765625 -52.0625 L 17.0625 -52.0625 Z M 17.0625 0 "/></g></g></g><g fill="#ffffff" fill-opacity="1"><g transform="translate(23.869276, 102.91068)"><g><path d="M 5.65625 0 L 5.65625 -39.28125 L 15.140625 -39.28125 L 15.140625 -33.515625 L 15.890625 -33.328125 C 18.328125 -37.796875 22.289062 -40.03125 27.78125 -40.03125 C 32.3125 -40.03125 35.640625 -38.796875 37.765625 -36.328125 C 39.890625 -33.859375 40.953125 -30.257812 40.953125 -25.53125 L 40.953125 0 L 31.09375 0 L 31.09375 -24.328125 C 31.09375 -26.929688 30.566406 -28.8125 29.515625 -29.96875 C 28.472656 -31.125 26.800781 -31.703125 24.5 -31.703125 C 21.675781 -31.703125 19.472656 -30.785156 17.890625 -28.953125 C 16.316406 -27.128906 15.53125 -24.253906 15.53125 -20.328125 L 15.53125 0 Z M 5.65625 0 "/></g></g></g><g fill="#ffbd59" fill-opacity="1"><g transform="translate(69.878905, 102.91068)"><g><path d="M 28.453125 0.75 C 23.660156 0.75 19.4375 -0.242188 15.78125 -2.234375 C 12.125 -4.234375 9.257812 -7.234375 7.1875 -11.234375 C 5.125 -15.234375 4.09375 -20.164062 4.09375 -26.03125 C 4.09375 -31.894531 5.125 -36.828125 7.1875 -40.828125 C 9.257812 -44.828125 12.125 -47.820312 15.78125 -49.8125 C 19.4375 -51.8125 23.660156 -52.8125 28.453125 -52.8125 C 33.460938 -52.8125 37.71875 -51.832031 41.21875 -49.875 C 44.71875 -47.914062 47.21875 -44.929688 48.71875 -40.921875 L 41.203125 -36.328125 L 40.3125 -36.359375 C 39.195312 -39.066406 37.679688 -41.007812 35.765625 -42.1875 C 33.859375 -43.363281 31.421875 -43.953125 28.453125 -43.953125 C 24.128906 -43.953125 20.753906 -42.519531 18.328125 -39.65625 C 15.910156 -36.789062 14.703125 -32.25 14.703125 -26.03125 C 14.703125 -19.832031 15.910156 -15.300781 18.328125 -12.4375 C 20.753906 -9.582031 24.128906 -8.15625 28.453125 -8.15625 C 35.222656 -8.15625 39.367188 -11.441406 40.890625 -18.015625 L 41.78125 -18.015625 L 49.359375 -14.0625 C 47.929688 -9.125 45.492188 -5.421875 42.046875 -2.953125 C 38.609375 -0.484375 34.078125 0.75 28.453125 0.75 Z M 28.453125 0.75 "/></g></g></g><g fill="#ffbd59" fill-opacity="1"><g transform="translate(120.941193, 102.91068)"><g><path d="M 5.65625 0 L 5.65625 -39.28125 L 15.25 -39.28125 L 15.25 -33.4375 L 15.984375 -33.296875 C 16.941406 -35.484375 18.191406 -37.085938 19.734375 -38.109375 C 21.273438 -39.128906 23.148438 -39.640625 25.359375 -39.640625 C 27.585938 -39.640625 29.285156 -39.257812 30.453125 -38.5 L 28.78125 -29.984375 L 28.03125 -29.84375 C 27.382812 -30.101562 26.765625 -30.289062 26.171875 -30.40625 C 25.578125 -30.53125 24.851562 -30.59375 24 -30.59375 C 21.25 -30.59375 19.148438 -29.625 17.703125 -27.6875 C 16.253906 -25.75 15.53125 -22.644531 15.53125 -18.375 L 15.53125 0 Z M 5.65625 0 "/></g></g></g><g fill="#ffbd59" fill-opacity="1"><g transform="translate(151.742369, 102.91068)"><g><path d="M 38.8125 -17.421875 L 13.5625 -17.421875 C 13.851562 -13.992188 14.828125 -11.503906 16.484375 -9.953125 C 18.148438 -8.398438 20.421875 -7.625 23.296875 -7.625 C 25.546875 -7.625 27.367188 -8.046875 28.765625 -8.890625 C 30.171875 -9.734375 31.300781 -11.007812 32.15625 -12.71875 L 32.90625 -12.71875 L 39.453125 -8.515625 C 38.171875 -5.753906 36.234375 -3.519531 33.640625 -1.8125 C 31.054688 -0.101562 27.609375 0.75 23.296875 0.75 C 19.234375 0.75 15.722656 -0.0195312 12.765625 -1.5625 C 9.804688 -3.101562 7.523438 -5.398438 5.921875 -8.453125 C 4.328125 -11.503906 3.53125 -15.226562 3.53125 -19.625 C 3.53125 -24.082031 4.367188 -27.84375 6.046875 -30.90625 C 7.734375 -33.96875 10.015625 -36.253906 12.890625 -37.765625 C 15.765625 -39.273438 18.992188 -40.03125 22.578125 -40.03125 C 28.128906 -40.03125 32.382812 -38.554688 35.34375 -35.609375 C 38.300781 -32.671875 39.78125 -28.351562 39.78125 -22.65625 C 39.78125 -20.582031 39.707031 -18.976562 39.5625 -17.84375 Z M 30.34375 -23.796875 C 30.25 -26.785156 29.550781 -28.960938 28.25 -30.328125 C 26.957031 -31.691406 25.066406 -32.375 22.578125 -32.375 C 17.585938 -32.375 14.65625 -29.515625 13.78125 -23.796875 Z M 30.34375 -23.796875 "/></g></g></g><g fill="#ffbd59" fill-opacity="1"><g transform="translate(194.436714, 102.91068)"><g><path d="M 19.40625 0.75 C 16.300781 0.75 13.550781 -0.00390625 11.15625 -1.515625 C 8.769531 -3.023438 6.898438 -5.300781 5.546875 -8.34375 C 4.203125 -11.394531 3.53125 -15.15625 3.53125 -19.625 C 3.53125 -24.113281 4.222656 -27.878906 5.609375 -30.921875 C 6.992188 -33.972656 8.914062 -36.253906 11.375 -37.765625 C 13.832031 -39.273438 16.675781 -40.03125 19.90625 -40.03125 C 22.351562 -40.03125 24.472656 -39.609375 26.265625 -38.765625 C 28.054688 -37.921875 29.570312 -36.609375 30.8125 -34.828125 L 31.546875 -35.015625 L 31.546875 -55.0625 L 41.421875 -55.0625 L 41.421875 0 L 31.546875 0 L 31.546875 -5.09375 L 30.8125 -5.234375 C 29.71875 -3.378906 28.21875 -1.914062 26.3125 -0.84375 C 24.414062 0.21875 22.113281 0.75 19.40625 0.75 Z M 22.609375 -7.625 C 25.390625 -7.625 27.585938 -8.613281 29.203125 -10.59375 C 30.816406 -12.570312 31.625 -15.582031 31.625 -19.625 C 31.625 -23.65625 30.816406 -26.664062 29.203125 -28.65625 C 27.585938 -30.65625 25.390625 -31.65625 22.609375 -31.65625 C 19.710938 -31.65625 17.5 -30.6875 15.96875 -28.75 C 14.4375 -26.820312 13.671875 -23.78125 13.671875 -19.625 C 13.671875 -15.488281 14.4375 -12.453125 15.96875 -10.515625 C 17.5 -8.585938 19.710938 -7.625 22.609375 -7.625 Z M 22.609375 -7.625 "/></g></g></g><g fill="#ffbd59" fill-opacity="1"><g transform="translate(241.510873, 102.91068)"><g><path d="M 10.578125 -43.984375 C 8.796875 -43.984375 7.347656 -44.519531 6.234375 -45.59375 C 5.117188 -46.675781 4.5625 -48.070312 4.5625 -49.78125 C 4.5625 -51.46875 5.117188 -52.851562 6.234375 -53.9375 C 7.347656 -55.019531 8.796875 -55.5625 10.578125 -55.5625 C 11.765625 -55.5625 12.820312 -55.3125 13.75 -54.8125 C 14.675781 -54.3125 15.394531 -53.628906 15.90625 -52.765625 C 16.414062 -51.898438 16.671875 -50.90625 16.671875 -49.78125 C 16.671875 -48.664062 16.414062 -47.671875 15.90625 -46.796875 C 15.394531 -45.921875 14.675781 -45.234375 13.75 -44.734375 C 12.820312 -44.234375 11.765625 -43.984375 10.578125 -43.984375 Z M 5.65625 0 L 5.65625 -39.28125 L 15.53125 -39.28125 L 15.53125 0 Z M 5.65625 0 "/></g></g></g><g fill="#ffbd59" fill-opacity="1"><g transform="translate(262.662197, 102.91068)"><g><path d="M 27.453125 0.75 C 22.441406 0.75 18.71875 -1.125 16.28125 -4.875 L 15.53125 -4.734375 L 15.53125 0 L 5.65625 0 L 5.65625 -55.0625 L 15.53125 -55.0625 L 15.53125 -34.65625 L 16.28125 -34.515625 C 17.632812 -36.390625 19.226562 -37.773438 21.0625 -38.671875 C 22.90625 -39.578125 25.109375 -40.03125 27.671875 -40.03125 C 30.847656 -40.03125 33.625 -39.28125 36 -37.78125 C 38.375 -36.289062 40.226562 -34.019531 41.5625 -30.96875 C 42.894531 -27.914062 43.5625 -24.132812 43.5625 -19.625 C 43.5625 -15.15625 42.867188 -11.394531 41.484375 -8.34375 C 40.109375 -5.300781 38.207031 -3.023438 35.78125 -1.515625 C 33.363281 -0.00390625 30.585938 0.75 27.453125 0.75 Z M 24.46875 -7.625 C 27.363281 -7.625 29.570312 -8.585938 31.09375 -10.515625 C 32.613281 -12.453125 33.375 -15.488281 33.375 -19.625 C 33.375 -23.78125 32.613281 -26.820312 31.09375 -28.75 C 29.570312 -30.6875 27.363281 -31.65625 24.46875 -31.65625 C 21.6875 -31.65625 19.484375 -30.65625 17.859375 -28.65625 C 16.234375 -26.664062 15.421875 -23.65625 15.421875 -19.625 C 15.421875 -15.582031 16.234375 -12.570312 17.859375 -10.59375 C 19.484375 -8.613281 21.6875 -7.625 24.46875 -7.625 Z M 24.46875 -7.625 "/></g></g></g><g fill="#ffbd59" fill-opacity="1"><g transform="translate(309.700754, 102.91068)"><g><path d="M 16.3125 0.75 C 12.769531 0.75 10.066406 -0.203125 8.203125 -2.109375 C 6.335938 -4.023438 5.40625 -6.929688 5.40625 -10.828125 L 5.40625 -55.0625 L 15.28125 -55.0625 L 15.28125 -11.21875 C 15.28125 -8.820312 16.273438 -7.625 18.265625 -7.625 C 18.835938 -7.625 19.445312 -7.71875 20.09375 -7.90625 L 20.578125 -7.765625 L 21.46875 -0.171875 C 20.925781 0.109375 20.203125 0.332031 19.296875 0.5 C 18.398438 0.664062 17.40625 0.75 16.3125 0.75 Z M 16.3125 0.75 "/></g></g></g><g fill="#ffbd59" fill-opacity="1"><g transform="translate(332.276398, 102.91068)"><g><path d="M 38.8125 -17.421875 L 13.5625 -17.421875 C 13.851562 -13.992188 14.828125 -11.503906 16.484375 -9.953125 C 18.148438 -8.398438 20.421875 -7.625 23.296875 -7.625 C 25.546875 -7.625 27.367188 -8.046875 28.765625 -8.890625 C 30.171875 -9.734375 31.300781 -11.007812 32.15625 -12.71875 L 32.90625 -12.71875 L 39.453125 -8.515625 C 38.171875 -5.753906 36.234375 -3.519531 33.640625 -1.8125 C 31.054688 -0.101562 27.609375 0.75 23.296875 0.75 C 19.234375 0.75 15.722656 -0.0195312 12.765625 -1.5625 C 9.804688 -3.101562 7.523438 -5.398438 5.921875 -8.453125 C 4.328125 -11.503906 3.53125 -15.226562 3.53125 -19.625 C 3.53125 -24.082031 4.367188 -27.84375 6.046875 -30.90625 C 7.734375 -33.96875 10.015625 -36.253906 12.890625 -37.765625 C 15.765625 -39.273438 18.992188 -40.03125 22.578125 -40.03125 C 28.128906 -40.03125 32.382812 -38.554688 35.34375 -35.609375 C 38.300781 -32.671875 39.78125 -28.351562 39.78125 -22.65625 C 39.78125 -20.582031 39.707031 -18.976562 39.5625 -17.84375 Z M 30.34375 -23.796875 C 30.25 -26.785156 29.550781 -28.960938 28.25 -30.328125 C 26.957031 -31.691406 25.066406 -32.375 22.578125 -32.375 C 17.585938 -32.375 14.65625 -29.515625 13.78125 -23.796875 Z M 30.34375 -23.796875 "/></g></g></g><g fill="#ffffff" fill-opacity="1"><g transform="translate(77.185514, 134.07393)"><g><path d="M 8.546875 0.25 C 7.078125 0.25 5.804688 -0.0820312 4.734375 -0.75 C 3.660156 -1.414062 2.832031 -2.425781 2.25 -3.78125 C 1.675781 -5.132812 1.390625 -6.804688 1.390625 -8.796875 C 1.390625 -10.796875 1.738281 -12.472656 2.4375 -13.828125 C 3.132812 -15.179688 4.097656 -16.1875 5.328125 -16.84375 C 6.566406 -17.507812 8.007812 -17.84375 9.65625 -17.84375 C 11.332031 -17.84375 12.765625 -17.53125 13.953125 -16.90625 C 15.140625 -16.28125 15.972656 -15.347656 16.453125 -14.109375 L 13.921875 -12.578125 L 13.625 -12.578125 C 13.257812 -13.367188 12.75 -13.941406 12.09375 -14.296875 C 11.4375 -14.660156 10.625 -14.84375 9.65625 -14.84375 C 8.132812 -14.84375 6.972656 -14.363281 6.171875 -13.40625 C 5.367188 -12.445312 4.96875 -10.910156 4.96875 -8.796875 C 4.96875 -6.671875 5.34375 -5.125 6.09375 -4.15625 C 6.84375 -3.195312 7.953125 -2.71875 9.421875 -2.71875 C 10.691406 -2.71875 11.625 -3 12.21875 -3.5625 C 12.820312 -4.132812 13.125 -4.988281 13.125 -6.125 L 13.125 -6.875 L 8.96875 -6.875 L 8.96875 -9.703125 L 16.578125 -9.703125 L 16.578125 0 L 13.265625 0 L 13.265625 -2.359375 L 13 -2.390625 C 12.644531 -1.546875 12.097656 -0.894531 11.359375 -0.4375 C 10.628906 0.0195312 9.691406 0.25 8.546875 0.25 Z M 8.546875 0.25 "/></g></g></g><g fill="#ffffff" fill-opacity="1"><g transform="translate(95.536086, 134.07393)"><g><path d="M 1.90625 0 L 1.90625 -13.265625 L 5.15625 -13.265625 L 5.15625 -11.296875 L 5.40625 -11.25 C 5.726562 -11.988281 6.148438 -12.53125 6.671875 -12.875 C 7.191406 -13.21875 7.820312 -13.390625 8.5625 -13.390625 C 9.320312 -13.390625 9.894531 -13.257812 10.28125 -13 L 9.71875 -10.125 L 9.46875 -10.078125 C 9.25 -10.171875 9.039062 -10.234375 8.84375 -10.265625 C 8.644531 -10.304688 8.398438 -10.328125 8.109375 -10.328125 C 7.179688 -10.328125 6.472656 -10 5.984375 -9.34375 C 5.492188 -8.695312 5.25 -7.648438 5.25 -6.203125 L 5.25 0 Z M 1.90625 0 "/></g></g></g><g fill="#ffffff" fill-opacity="1"><g transform="translate(105.944774, 134.07393)"><g><path d="M 3.578125 -14.859375 C 2.972656 -14.859375 2.484375 -15.039062 2.109375 -15.40625 C 1.734375 -15.769531 1.546875 -16.238281 1.546875 -16.8125 C 1.546875 -17.382812 1.734375 -17.851562 2.109375 -18.21875 C 2.484375 -18.582031 2.972656 -18.765625 3.578125 -18.765625 C 3.972656 -18.765625 4.328125 -18.679688 4.640625 -18.515625 C 4.953125 -18.347656 5.191406 -18.117188 5.359375 -17.828125 C 5.535156 -17.535156 5.625 -17.195312 5.625 -16.8125 C 5.625 -16.4375 5.535156 -16.097656 5.359375 -15.796875 C 5.191406 -15.503906 4.953125 -15.273438 4.640625 -15.109375 C 4.328125 -14.941406 3.972656 -14.859375 3.578125 -14.859375 Z M 1.90625 0 L 1.90625 -13.265625 L 5.25 -13.265625 L 5.25 0 Z M 1.90625 0 "/></g></g></g><g fill="#ffffff" fill-opacity="1"><g transform="translate(113.092469, 134.07393)"><g><path d="M 5.515625 0.25 C 4.316406 0.25 3.398438 -0.0703125 2.765625 -0.71875 C 2.140625 -1.363281 1.828125 -2.34375 1.828125 -3.65625 L 1.828125 -18.59375 L 5.15625 -18.59375 L 5.15625 -3.796875 C 5.15625 -2.984375 5.492188 -2.578125 6.171875 -2.578125 C 6.367188 -2.578125 6.570312 -2.609375 6.78125 -2.671875 L 6.953125 -2.625 L 7.25 -0.0625 C 7.070312 0.03125 6.828125 0.101562 6.515625 0.15625 C 6.210938 0.21875 5.878906 0.25 5.515625 0.25 Z M 5.515625 0.25 "/></g></g></g><g fill="#ffffff" fill-opacity="1"><g transform="translate(120.721491, 134.07393)"><g><path d="M 5.515625 0.25 C 4.316406 0.25 3.398438 -0.0703125 2.765625 -0.71875 C 2.140625 -1.363281 1.828125 -2.34375 1.828125 -3.65625 L 1.828125 -18.59375 L 5.15625 -18.59375 L 5.15625 -3.796875 C 5.15625 -2.984375 5.492188 -2.578125 6.171875 -2.578125 C 6.367188 -2.578125 6.570312 -2.609375 6.78125 -2.671875 L 6.953125 -2.625 L 7.25 -0.0625 C 7.070312 0.03125 6.828125 0.101562 6.515625 0.15625 C 6.210938 0.21875 5.878906 0.25 5.515625 0.25 Z M 5.515625 0.25 "/></g></g></g><g fill="#ffffff" fill-opacity="1"><g transform="translate(128.350513, 134.07393)"><g><path d="M 13.109375 -5.890625 L 4.578125 -5.890625 C 4.679688 -4.734375 5.007812 -3.890625 5.5625 -3.359375 C 6.125 -2.835938 6.894531 -2.578125 7.875 -2.578125 C 8.632812 -2.578125 9.25 -2.71875 9.71875 -3 C 10.195312 -3.28125 10.578125 -3.710938 10.859375 -4.296875 L 11.109375 -4.296875 L 13.328125 -2.875 C 12.898438 -1.945312 12.25 -1.191406 11.375 -0.609375 C 10.5 -0.0351562 9.332031 0.25 7.875 0.25 C 6.5 0.25 5.3125 -0.0078125 4.3125 -0.53125 C 3.3125 -1.050781 2.539062 -1.828125 2 -2.859375 C 1.457031 -3.890625 1.1875 -5.144531 1.1875 -6.625 C 1.1875 -8.132812 1.472656 -9.40625 2.046875 -10.4375 C 2.617188 -11.476562 3.390625 -12.253906 4.359375 -12.765625 C 5.328125 -13.273438 6.414062 -13.53125 7.625 -13.53125 C 9.5 -13.53125 10.9375 -13.03125 11.9375 -12.03125 C 12.9375 -11.039062 13.4375 -9.582031 13.4375 -7.65625 C 13.4375 -6.957031 13.410156 -6.414062 13.359375 -6.03125 Z M 10.25 -8.03125 C 10.21875 -9.039062 9.984375 -9.773438 9.546875 -10.234375 C 9.109375 -10.703125 8.46875 -10.9375 7.625 -10.9375 C 5.9375 -10.9375 4.945312 -9.96875 4.65625 -8.03125 Z M 10.25 -8.03125 "/></g></g></g><g fill="#ffffff" fill-opacity="1"><g transform="translate(142.778275, 134.07393)"><g><path d="M 6.5625 0.25 C 5.507812 0.25 4.578125 -0.00390625 3.765625 -0.515625 C 2.960938 -1.023438 2.332031 -1.796875 1.875 -2.828125 C 1.414062 -3.859375 1.1875 -5.125 1.1875 -6.625 C 1.1875 -8.144531 1.421875 -9.421875 1.890625 -10.453125 C 2.359375 -11.484375 3.007812 -12.253906 3.84375 -12.765625 C 4.675781 -13.273438 5.632812 -13.53125 6.71875 -13.53125 C 7.550781 -13.53125 8.269531 -13.382812 8.875 -13.09375 C 9.476562 -12.8125 9.988281 -12.367188 10.40625 -11.765625 L 10.65625 -11.828125 L 10.65625 -18.59375 L 14 -18.59375 L 14 0 L 10.65625 0 L 10.65625 -1.71875 L 10.40625 -1.765625 C 10.039062 -1.140625 9.535156 -0.644531 8.890625 -0.28125 C 8.242188 0.0703125 7.46875 0.25 6.5625 0.25 Z M 7.640625 -2.578125 C 8.578125 -2.578125 9.316406 -2.910156 9.859375 -3.578125 C 10.410156 -4.242188 10.6875 -5.257812 10.6875 -6.625 C 10.6875 -7.988281 10.410156 -9.007812 9.859375 -9.6875 C 9.316406 -10.363281 8.578125 -10.703125 7.640625 -10.703125 C 6.660156 -10.703125 5.910156 -10.375 5.390625 -9.71875 C 4.878906 -9.0625 4.625 -8.03125 4.625 -6.625 C 4.625 -5.226562 4.878906 -4.203125 5.390625 -3.546875 C 5.910156 -2.898438 6.660156 -2.578125 7.640625 -2.578125 Z M 7.640625 -2.578125 "/></g></g></g><g fill="#ffffff" fill-opacity="1"><g transform="translate(158.68611, 134.07393)"><g/></g></g><g fill="#ffffff" fill-opacity="1"><g transform="translate(164.498131, 134.07393)"><g><path d="M 9.609375 0.25 C 7.992188 0.25 6.566406 -0.0820312 5.328125 -0.75 C 4.097656 -1.425781 3.132812 -2.441406 2.4375 -3.796875 C 1.738281 -5.148438 1.390625 -6.816406 1.390625 -8.796875 C 1.390625 -10.773438 1.738281 -12.441406 2.4375 -13.796875 C 3.132812 -15.148438 4.097656 -16.160156 5.328125 -16.828125 C 6.566406 -17.503906 7.992188 -17.84375 9.609375 -17.84375 C 11.304688 -17.84375 12.742188 -17.507812 13.921875 -16.84375 C 15.109375 -16.1875 15.953125 -15.179688 16.453125 -13.828125 L 13.921875 -12.265625 L 13.625 -12.28125 C 13.238281 -13.195312 12.722656 -13.851562 12.078125 -14.25 C 11.429688 -14.644531 10.609375 -14.84375 9.609375 -14.84375 C 8.148438 -14.84375 7.007812 -14.359375 6.1875 -13.390625 C 5.375 -12.429688 4.96875 -10.898438 4.96875 -8.796875 C 4.96875 -6.703125 5.375 -5.171875 6.1875 -4.203125 C 7.007812 -3.234375 8.148438 -2.75 9.609375 -2.75 C 11.898438 -2.75 13.300781 -3.863281 13.8125 -6.09375 L 14.109375 -6.09375 L 16.671875 -4.75 C 16.191406 -3.082031 15.367188 -1.832031 14.203125 -1 C 13.046875 -0.164062 11.515625 0.25 9.609375 0.25 Z M 9.609375 0.25 "/></g></g></g><g fill="#ffffff" fill-opacity="1"><g transform="translate(181.753679, 134.07393)"><g><path d="M 1.90625 0 L 1.90625 -18.59375 L 5.25 -18.59375 L 5.25 -11.53125 L 5.5 -11.484375 C 5.9375 -12.140625 6.472656 -12.644531 7.109375 -13 C 7.753906 -13.351562 8.53125 -13.53125 9.4375 -13.53125 C 12.375 -13.53125 13.84375 -11.867188 13.84375 -8.546875 L 13.84375 0 L 10.5 0 L 10.5 -8.125 C 10.5 -9.03125 10.316406 -9.6875 9.953125 -10.09375 C 9.597656 -10.5 9.039062 -10.703125 8.28125 -10.703125 C 7.34375 -10.703125 6.601562 -10.390625 6.0625 -9.765625 C 5.519531 -9.148438 5.25 -8.1875 5.25 -6.875 L 5.25 0 Z M 1.90625 0 "/></g></g></g><g fill="#ffffff" fill-opacity="1"><g transform="translate(197.300519, 134.07393)"><g><path d="M 13.109375 -5.890625 L 4.578125 -5.890625 C 4.679688 -4.734375 5.007812 -3.890625 5.5625 -3.359375 C 6.125 -2.835938 6.894531 -2.578125 7.875 -2.578125 C 8.632812 -2.578125 9.25 -2.71875 9.71875 -3 C 10.195312 -3.28125 10.578125 -3.710938 10.859375 -4.296875 L 11.109375 -4.296875 L 13.328125 -2.875 C 12.898438 -1.945312 12.25 -1.191406 11.375 -0.609375 C 10.5 -0.0351562 9.332031 0.25 7.875 0.25 C 6.5 0.25 5.3125 -0.0078125 4.3125 -0.53125 C 3.3125 -1.050781 2.539062 -1.828125 2 -2.859375 C 1.457031 -3.890625 1.1875 -5.144531 1.1875 -6.625 C 1.1875 -8.132812 1.472656 -9.40625 2.046875 -10.4375 C 2.617188 -11.476562 3.390625 -12.253906 4.359375 -12.765625 C 5.328125 -13.273438 6.414062 -13.53125 7.625 -13.53125 C 9.5 -13.53125 10.9375 -13.03125 11.9375 -12.03125 C 12.9375 -11.039062 13.4375 -9.582031 13.4375 -7.65625 C 13.4375 -6.957031 13.410156 -6.414062 13.359375 -6.03125 Z M 10.25 -8.03125 C 10.21875 -9.039062 9.984375 -9.773438 9.546875 -10.234375 C 9.109375 -10.703125 8.46875 -10.9375 7.625 -10.9375 C 5.9375 -10.9375 4.945312 -9.96875 4.65625 -8.03125 Z M 10.25 -8.03125 "/></g></g></g><g fill="#ffffff" fill-opacity="1"><g transform="translate(211.728281, 134.07393)"><g><path d="M 13.109375 -5.890625 L 4.578125 -5.890625 C 4.679688 -4.734375 5.007812 -3.890625 5.5625 -3.359375 C 6.125 -2.835938 6.894531 -2.578125 7.875 -2.578125 C 8.632812 -2.578125 9.25 -2.71875 9.71875 -3 C 10.195312 -3.28125 10.578125 -3.710938 10.859375 -4.296875 L 11.109375 -4.296875 L 13.328125 -2.875 C 12.898438 -1.945312 12.25 -1.191406 11.375 -0.609375 C 10.5 -0.0351562 9.332031 0.25 7.875 0.25 C 6.5 0.25 5.3125 -0.0078125 4.3125 -0.53125 C 3.3125 -1.050781 2.539062 -1.828125 2 -2.859375 C 1.457031 -3.890625 1.1875 -5.144531 1.1875 -6.625 C 1.1875 -8.132812 1.472656 -9.40625 2.046875 -10.4375 C 2.617188 -11.476562 3.390625 -12.253906 4.359375 -12.765625 C 5.328125 -13.273438 6.414062 -13.53125 7.625 -13.53125 C 9.5 -13.53125 10.9375 -13.03125 11.9375 -12.03125 C 12.9375 -11.039062 13.4375 -9.582031 13.4375 -7.65625 C 13.4375 -6.957031 13.410156 -6.414062 13.359375 -6.03125 Z M 10.25 -8.03125 C 10.21875 -9.039062 9.984375 -9.773438 9.546875 -10.234375 C 9.109375 -10.703125 8.46875 -10.9375 7.625 -10.9375 C 5.9375 -10.9375 4.945312 -9.96875 4.65625 -8.03125 Z M 10.25 -8.03125 "/></g></g></g><g fill="#ffffff" fill-opacity="1"><g transform="translate(226.156043, 134.07393)"><g><path d="M 6.203125 0.25 C 5.296875 0.25 4.46875 0.144531 3.71875 -0.0625 C 2.96875 -0.28125 2.320312 -0.570312 1.78125 -0.9375 C 1.25 -1.3125 0.859375 -1.738281 0.609375 -2.21875 L 2.453125 -4.21875 L 2.703125 -4.21875 C 3.148438 -3.625 3.671875 -3.175781 4.265625 -2.875 C 4.867188 -2.582031 5.523438 -2.4375 6.234375 -2.4375 C 6.878906 -2.4375 7.363281 -2.550781 7.6875 -2.78125 C 8.019531 -3.019531 8.1875 -3.359375 8.1875 -3.796875 C 8.1875 -4.128906 8.066406 -4.410156 7.828125 -4.640625 C 7.597656 -4.867188 7.21875 -5.046875 6.6875 -5.171875 L 4.9375 -5.59375 C 3.613281 -5.90625 2.648438 -6.382812 2.046875 -7.03125 C 1.441406 -7.675781 1.140625 -8.5 1.140625 -9.5 C 1.140625 -10.320312 1.347656 -11.035156 1.765625 -11.640625 C 2.191406 -12.253906 2.785156 -12.722656 3.546875 -13.046875 C 4.316406 -13.367188 5.210938 -13.53125 6.234375 -13.53125 C 7.429688 -13.53125 8.421875 -13.351562 9.203125 -13 C 9.992188 -12.65625 10.609375 -12.195312 11.046875 -11.625 L 9.265625 -9.703125 L 9.03125 -9.703125 C 8.65625 -10.117188 8.238281 -10.421875 7.78125 -10.609375 C 7.320312 -10.804688 6.804688 -10.90625 6.234375 -10.90625 C 4.921875 -10.90625 4.265625 -10.492188 4.265625 -9.671875 C 4.265625 -9.328125 4.382812 -9.046875 4.625 -8.828125 C 4.875 -8.609375 5.304688 -8.429688 5.921875 -8.296875 L 7.5625 -7.9375 C 8.90625 -7.644531 9.882812 -7.179688 10.5 -6.546875 C 11.125 -5.910156 11.4375 -5.054688 11.4375 -3.984375 C 11.4375 -3.140625 11.226562 -2.394531 10.8125 -1.75 C 10.394531 -1.113281 9.789062 -0.617188 9 -0.265625 C 8.21875 0.078125 7.285156 0.25 6.203125 0.25 Z M 6.203125 0.25 "/></g></g></g><g fill="#ffffff" fill-opacity="1"><g transform="translate(238.393771, 134.07393)"><g><path d="M 13.109375 -5.890625 L 4.578125 -5.890625 C 4.679688 -4.734375 5.007812 -3.890625 5.5625 -3.359375 C 6.125 -2.835938 6.894531 -2.578125 7.875 -2.578125 C 8.632812 -2.578125 9.25 -2.71875 9.71875 -3 C 10.195312 -3.28125 10.578125 -3.710938 10.859375 -4.296875 L 11.109375 -4.296875 L 13.328125 -2.875 C 12.898438 -1.945312 12.25 -1.191406 11.375 -0.609375 C 10.5 -0.0351562 9.332031 0.25 7.875 0.25 C 6.5 0.25 5.3125 -0.0078125 4.3125 -0.53125 C 3.3125 -1.050781 2.539062 -1.828125 2 -2.859375 C 1.457031 -3.890625 1.1875 -5.144531 1.1875 -6.625 C 1.1875 -8.132812 1.472656 -9.40625 2.046875 -10.4375 C 2.617188 -11.476562 3.390625 -12.253906 4.359375 -12.765625 C 5.328125 -13.273438 6.414062 -13.53125 7.625 -13.53125 C 9.5 -13.53125 10.9375 -13.03125 11.9375 -12.03125 C 12.9375 -11.039062 13.4375 -9.582031 13.4375 -7.65625 C 13.4375 -6.957031 13.410156 -6.414062 13.359375 -6.03125 Z M 10.25 -8.03125 C 10.21875 -9.039062 9.984375 -9.773438 9.546875 -10.234375 C 9.109375 -10.703125 8.46875 -10.9375 7.625 -10.9375 C 5.9375 -10.9375 4.945312 -9.96875 4.65625 -8.03125 Z M 10.25 -8.03125 "/></g></g></g><g fill="#ffffff" fill-opacity="1"><g transform="translate(252.821533, 134.07393)"><g/></g></g><g fill="#ffffff" fill-opacity="1"><g transform="translate(258.633554, 134.07393)"><g><path d="M 7.796875 0.25 C 6.578125 0.25 5.488281 0.0976562 4.53125 -0.203125 C 3.582031 -0.503906 2.789062 -0.898438 2.15625 -1.390625 C 1.53125 -1.878906 1.046875 -2.414062 0.703125 -3 L 2.625 -5.328125 L 2.921875 -5.328125 C 3.453125 -4.546875 4.125 -3.921875 4.9375 -3.453125 C 5.75 -2.984375 6.703125 -2.75 7.796875 -2.75 C 8.722656 -2.75 9.421875 -2.945312 9.890625 -3.34375 C 10.367188 -3.738281 10.609375 -4.28125 10.609375 -4.96875 C 10.609375 -5.382812 10.53125 -5.734375 10.375 -6.015625 C 10.226562 -6.296875 9.976562 -6.535156 9.625 -6.734375 C 9.269531 -6.929688 8.789062 -7.101562 8.1875 -7.25 L 5.9375 -7.765625 C 4.351562 -8.128906 3.171875 -8.726562 2.390625 -9.5625 C 1.617188 -10.40625 1.234375 -11.5 1.234375 -12.84375 C 1.234375 -13.832031 1.484375 -14.703125 1.984375 -15.453125 C 2.484375 -16.210938 3.207031 -16.800781 4.15625 -17.21875 C 5.101562 -17.632812 6.238281 -17.84375 7.5625 -17.84375 C 8.914062 -17.84375 10.078125 -17.660156 11.046875 -17.296875 C 12.015625 -16.941406 12.832031 -16.398438 13.5 -15.671875 L 11.78125 -13.3125 L 11.484375 -13.3125 C 10.984375 -13.832031 10.410156 -14.222656 9.765625 -14.484375 C 9.128906 -14.742188 8.394531 -14.875 7.5625 -14.875 C 6.613281 -14.875 5.890625 -14.703125 5.390625 -14.359375 C 4.890625 -14.023438 4.640625 -13.5625 4.640625 -12.96875 C 4.640625 -12.414062 4.8125 -11.972656 5.15625 -11.640625 C 5.507812 -11.316406 6.117188 -11.0625 6.984375 -10.875 L 9.28125 -10.390625 C 10.988281 -10.035156 12.226562 -9.425781 13 -8.5625 C 13.769531 -7.695312 14.15625 -6.570312 14.15625 -5.1875 C 14.15625 -4.082031 13.914062 -3.125 13.4375 -2.3125 C 12.96875 -1.5 12.253906 -0.867188 11.296875 -0.421875 C 10.347656 0.0234375 9.179688 0.25 7.796875 0.25 Z M 7.796875 0.25 "/></g></g></g><g fill="#ffffff" fill-opacity="1"><g transform="translate(273.7472, 134.07393)"><g><path d="M 5.171875 0.25 C 4.316406 0.25 3.578125 0.09375 2.953125 -0.21875 C 2.328125 -0.53125 1.847656 -0.988281 1.515625 -1.59375 C 1.179688 -2.195312 1.015625 -2.925781 1.015625 -3.78125 C 1.015625 -4.5625 1.179688 -5.21875 1.515625 -5.75 C 1.847656 -6.289062 2.367188 -6.726562 3.078125 -7.0625 C 3.785156 -7.40625 4.707031 -7.671875 5.84375 -7.859375 C 6.632812 -7.984375 7.238281 -8.117188 7.65625 -8.265625 C 8.070312 -8.421875 8.347656 -8.59375 8.484375 -8.78125 C 8.628906 -8.976562 8.703125 -9.226562 8.703125 -9.53125 C 8.703125 -9.957031 8.554688 -10.28125 8.265625 -10.5 C 7.972656 -10.726562 7.476562 -10.84375 6.78125 -10.84375 C 6.039062 -10.84375 5.335938 -10.675781 4.671875 -10.34375 C 4.015625 -10.019531 3.441406 -9.585938 2.953125 -9.046875 L 2.703125 -9.046875 L 1.3125 -11.15625 C 1.988281 -11.894531 2.8125 -12.472656 3.78125 -12.890625 C 4.75 -13.316406 5.804688 -13.53125 6.953125 -13.53125 C 8.710938 -13.53125 9.984375 -13.15625 10.765625 -12.40625 C 11.554688 -11.65625 11.953125 -10.597656 11.953125 -9.234375 L 11.953125 -3.46875 C 11.953125 -2.875 12.210938 -2.578125 12.734375 -2.578125 C 12.929688 -2.578125 13.125 -2.613281 13.3125 -2.6875 L 13.484375 -2.640625 L 13.734375 -0.3125 C 13.546875 -0.1875 13.285156 -0.0859375 12.953125 -0.015625 C 12.628906 0.0546875 12.269531 0.09375 11.875 0.09375 C 11.082031 0.09375 10.460938 -0.0546875 10.015625 -0.359375 C 9.566406 -0.660156 9.25 -1.140625 9.0625 -1.796875 L 8.8125 -1.8125 C 8.15625 -0.4375 6.941406 0.25 5.171875 0.25 Z M 6.234375 -2.234375 C 7.003906 -2.234375 7.617188 -2.492188 8.078125 -3.015625 C 8.535156 -3.535156 8.765625 -4.253906 8.765625 -5.171875 L 8.765625 -6.515625 L 8.546875 -6.5625 C 8.335938 -6.40625 8.070312 -6.269531 7.75 -6.15625 C 7.425781 -6.050781 6.960938 -5.945312 6.359375 -5.84375 C 5.628906 -5.726562 5.101562 -5.519531 4.78125 -5.21875 C 4.46875 -4.925781 4.3125 -4.515625 4.3125 -3.984375 C 4.3125 -3.410156 4.476562 -2.972656 4.8125 -2.671875 C 5.15625 -2.378906 5.628906 -2.234375 6.234375 -2.234375 Z M 6.234375 -2.234375 "/></g></g></g><g fill="#ffffff" fill-opacity="1"><g transform="translate(287.741769, 134.07393)"><g><path d="M 1.90625 0 L 1.90625 -13.265625 L 5.109375 -13.265625 L 5.109375 -11.328125 L 5.359375 -11.265625 C 6.191406 -12.773438 7.535156 -13.53125 9.390625 -13.53125 C 10.921875 -13.53125 12.046875 -13.109375 12.765625 -12.265625 C 13.484375 -11.429688 13.84375 -10.21875 13.84375 -8.625 L 13.84375 0 L 10.5 0 L 10.5 -8.21875 C 10.5 -9.101562 10.320312 -9.738281 9.96875 -10.125 C 9.613281 -10.507812 9.050781 -10.703125 8.28125 -10.703125 C 7.320312 -10.703125 6.578125 -10.394531 6.046875 -9.78125 C 5.515625 -9.164062 5.25 -8.195312 5.25 -6.875 L 5.25 0 Z M 1.90625 0 "/></g></g></g><g fill="#ffffff" fill-opacity="1"><g transform="translate(303.288609, 134.07393)"><g><path d="M 6.5625 0.25 C 5.507812 0.25 4.578125 -0.00390625 3.765625 -0.515625 C 2.960938 -1.023438 2.332031 -1.796875 1.875 -2.828125 C 1.414062 -3.859375 1.1875 -5.125 1.1875 -6.625 C 1.1875 -8.144531 1.421875 -9.421875 1.890625 -10.453125 C 2.359375 -11.484375 3.007812 -12.253906 3.84375 -12.765625 C 4.675781 -13.273438 5.632812 -13.53125 6.71875 -13.53125 C 7.550781 -13.53125 8.269531 -13.382812 8.875 -13.09375 C 9.476562 -12.8125 9.988281 -12.367188 10.40625 -11.765625 L 10.65625 -11.828125 L 10.65625 -18.59375 L 14 -18.59375 L 14 0 L 10.65625 0 L 10.65625 -1.71875 L 10.40625 -1.765625 C 10.039062 -1.140625 9.535156 -0.644531 8.890625 -0.28125 C 8.242188 0.0703125 7.46875 0.25 6.5625 0.25 Z M 7.640625 -2.578125 C 8.578125 -2.578125 9.316406 -2.910156 9.859375 -3.578125 C 10.410156 -4.242188 10.6875 -5.257812 10.6875 -6.625 C 10.6875 -7.988281 10.410156 -9.007812 9.859375 -9.6875 C 9.316406 -10.363281 8.578125 -10.703125 7.640625 -10.703125 C 6.660156 -10.703125 5.910156 -10.375 5.390625 -9.71875 C 4.878906 -9.0625 4.625 -8.03125 4.625 -6.625 C 4.625 -5.226562 4.878906 -4.203125 5.390625 -3.546875 C 5.910156 -2.898438 6.660156 -2.578125 7.640625 -2.578125 Z M 7.640625 -2.578125 "/></g></g></g><g fill="#ffffff" fill-opacity="1"><g transform="translate(319.196431, 134.07393)"><g><path d="M 7.125 0 L 3.640625 0 L 0.484375 -13.265625 L 3.578125 -13.265625 L 5.515625 -4.296875 L 5.78125 -4.296875 L 8.296875 -13.265625 L 11.1875 -13.265625 L 13.796875 -4.296875 L 14.046875 -4.296875 L 15.9375 -13.265625 L 18.9375 -13.265625 L 15.828125 0 L 12.328125 0 L 9.8125 -9.03125 L 9.546875 -9.03125 Z M 7.125 0 "/></g></g></g><g fill="#ffffff" fill-opacity="1"><g transform="translate(338.605908, 134.07393)"><g><path d="M 3.578125 -14.859375 C 2.972656 -14.859375 2.484375 -15.039062 2.109375 -15.40625 C 1.734375 -15.769531 1.546875 -16.238281 1.546875 -16.8125 C 1.546875 -17.382812 1.734375 -17.851562 2.109375 -18.21875 C 2.484375 -18.582031 2.972656 -18.765625 3.578125 -18.765625 C 3.972656 -18.765625 4.328125 -18.679688 4.640625 -18.515625 C 4.953125 -18.347656 5.191406 -18.117188 5.359375 -17.828125 C 5.535156 -17.535156 5.625 -17.195312 5.625 -16.8125 C 5.625 -16.4375 5.535156 -16.097656 5.359375 -15.796875 C 5.191406 -15.503906 4.953125 -15.273438 4.640625 -15.109375 C 4.328125 -14.941406 3.972656 -14.859375 3.578125 -14.859375 Z M 1.90625 0 L 1.90625 -13.265625 L 5.25 -13.265625 L 5.25 0 Z M 1.90625 0 "/></g></g></g><g fill="#ffffff" fill-opacity="1"><g transform="translate(345.75359, 134.07393)"><g><path d="M 7.734375 0.25 C 6.453125 0.25 5.316406 -0.015625 4.328125 -0.546875 C 3.335938 -1.078125 2.566406 -1.859375 2.015625 -2.890625 C 1.460938 -3.929688 1.1875 -5.175781 1.1875 -6.625 C 1.1875 -8.082031 1.460938 -9.328125 2.015625 -10.359375 C 2.566406 -11.398438 3.332031 -12.1875 4.3125 -12.71875 C 5.289062 -13.257812 6.410156 -13.53125 7.671875 -13.53125 C 10.472656 -13.53125 12.265625 -12.515625 13.046875 -10.484375 L 10.765625 -8.84375 L 10.515625 -8.84375 C 10.242188 -9.46875 9.890625 -9.929688 9.453125 -10.234375 C 9.015625 -10.546875 8.421875 -10.703125 7.671875 -10.703125 C 6.710938 -10.703125 5.960938 -10.367188 5.421875 -9.703125 C 4.890625 -9.035156 4.625 -8.007812 4.625 -6.625 C 4.625 -5.257812 4.894531 -4.242188 5.4375 -3.578125 C 5.976562 -2.910156 6.742188 -2.578125 7.734375 -2.578125 C 8.453125 -2.578125 9.0625 -2.769531 9.5625 -3.15625 C 10.070312 -3.539062 10.429688 -4.101562 10.640625 -4.84375 L 10.90625 -4.859375 L 13.265625 -3.5625 C 12.929688 -2.4375 12.304688 -1.519531 11.390625 -0.8125 C 10.484375 -0.101562 9.265625 0.25 7.734375 0.25 Z M 7.734375 0.25 "/></g></g></g><g fill="#ffffff" fill-opacity="1"><g transform="translate(359.43531, 134.07393)"><g><path d="M 1.90625 0 L 1.90625 -18.59375 L 5.25 -18.59375 L 5.25 -11.53125 L 5.5 -11.484375 C 5.9375 -12.140625 6.472656 -12.644531 7.109375 -13 C 7.753906 -13.351562 8.53125 -13.53125 9.4375 -13.53125 C 12.375 -13.53125 13.84375 -11.867188 13.84375 -8.546875 L 13.84375 0 L 10.5 0 L 10.5 -8.125 C 10.5 -9.03125 10.316406 -9.6875 9.953125 -10.09375 C 9.597656 -10.5 9.039062 -10.703125 8.28125 -10.703125 C 7.34375 -10.703125 6.601562 -10.390625 6.0625 -9.765625 C 5.519531 -9.148438 5.25 -8.1875 5.25 -6.875 L 5.25 0 Z M 1.90625 0 "/></g></g></g></svg>